<!DOCTYPE svg PUBLIC "-//W3C//DTD SVG 1.1//EN" "http://www.w3.org/Graphics/SVG/1.1/DTD/svg11.dtd">
<!-- Uploaded to: SVG Repo, www.svgrepo.com, Transformed by: SVG Repo Mixer Tools -->
<svg width="64px" height="64px" viewBox="6 6 12 12" id="meteor-icon-kit__regular-minus-xs" fill="none" xmlns="http://www.w3.org/2000/svg" stroke="#000000" stroke-width="0.00012000000000000002">
<g id="SVGRepo_bgCarrier" stroke-width="0"/>
<g id="SVGRepo_tracerCarrier" stroke-linecap="round" stroke-linejoin="round" stroke="#CCCCCC" stroke-width="0.072"/>
<g id="SVGRepo_iconCarrier">
<path fill-rule="evenodd" clip-rule="evenodd" d="M6.85714 13H17.1429C17.6162 13 18 12.5523 18 12C18 11.4477 17.6162 11 17.1429 11H6.85714C6.38376 11 6 11.4477 6 12C6 12.5523 6.38376 13 6.85714 13Z" fill="#caccce"/>
<mask id="mask0_0_198" style="mask-type:alpha" maskUnits="userSpaceOnUse" x="6" y="11" width="12" height="2">
<path fill-rule="evenodd" clip-rule="evenodd" d="M6.85714 13H17.1429C17.6162 13 18 12.5523 18 12C18 11.4477 17.6162 11 17.1429 11H6.85714C6.38376 11 6 11.4477 6 12C6 12.5523 6.38376 13 6.85714 13Z" fill="white"/>
</mask>
<g mask="url(#mask0_0_198)"/>
</g>
</svg>